HIERARCHY
ROOT Hips
{
	OFFSET 93.006660 91.503891 151.257904
	CHANNELS 6 Xposition Yposition Zposition Zrotation Yrotation Xrotation 
	JOINT LeftUpLeg
	{
		OFFSET 0.103458 1.857829 10.548508
		CHANNELS 3 Zrotation Yrotation Xrotation
		JOINT LeftLeg
		{
			OFFSET 43.499996 -0.000038 0.000006
			CHANNELS 3 Zrotation Yrotation Xrotation
			JOINT LeftFoot
			{
				OFFSET 42.372200 0.000008 -0.000002
				CHANNELS 3 Zrotation Yrotation Xrotation
				JOINT LeftToe
				{
					OFFSET 17.299995 -0.000002 0.000004
					CHANNELS 3 Zrotation Yrotation Xrotation
					End Site
					{
						OFFSET 0.000000 0.000000 0.000000
					}
				}
			}
		}
	}
	JOINT RightUpLeg
	{
		OFFSET 0.103455 1.857822 -10.548502
		CHANNELS 3 Zrotation Yrotation Xrotation
		JOINT RightLeg
		{
			OFFSET 43.500038 -0.000023 0.000006
			CHANNELS 3 Zrotation Yrotation Xrotation
			JOINT RightFoot
			{
				OFFSET 42.372261 0.000000 0.000010
				CHANNELS 3 Zrotation Yrotation Xrotation
				JOINT RightToe
				{
					OFFSET 17.299995 -0.000005 0.000002
					CHANNELS 3 Zrotation Yrotation Xrotation
					End Site
					{
						OFFSET 0.000000 0.000000 0.000000
					}
				}
			}
		}
	}
	JOINT Spine
	{
		OFFSET 6.901965 -2.603733 -0.000004
		CHANNELS 3 Zrotation Yrotation Xrotation
		JOINT Spine1
		{
			OFFSET 12.588106 0.000003 0.000000
			CHANNELS 3 Zrotation Yrotation Xrotation
			JOINT Spine2
			{
				OFFSET 12.343201 0.000003 0.000003
				CHANNELS 3 Zrotation Yrotation Xrotation
				JOINT Neck
				{
					OFFSET 25.832893 -0.000008 0.000002
					CHANNELS 3 Zrotation Yrotation Xrotation
					JOINT Head
					{
						OFFSET 11.766605 0.000004 0.000000
						CHANNELS 3 Zrotation Yrotation Xrotation
						End Site
						{
							OFFSET 0.000000 0.000000 0.000000
						}
					}
				}
				JOINT LeftShoulder
				{
					OFFSET 19.745905 -1.480375 6.000105
					CHANNELS 3 Zrotation Yrotation Xrotation
					JOINT LeftArm
					{
						OFFSET 11.284126 -0.000015 -0.000029
						CHANNELS 3 Zrotation Yrotation Xrotation
						JOINT LeftForeArm
						{
							OFFSET 33.000050 0.000007 0.000040
							CHANNELS 3 Zrotation Yrotation Xrotation
							JOINT LeftHand
							{
								OFFSET 25.200010 0.000008 0.000004
								CHANNELS 3 Zrotation Yrotation Xrotation
								End Site
								{
									OFFSET 0.000000 0.000000 0.000000
								}
							}
						}
					}
				}
				JOINT RightShoulder
				{
					OFFSET 19.746092 -1.480381 -6.000073
					CHANNELS 3 Zrotation Yrotation Xrotation
					JOINT RightArm
					{
						OFFSET 11.284138 -0.000024 -0.000021
						CHANNELS 3 Zrotation Yrotation Xrotation
						JOINT RightForeArm
						{
							OFFSET 33.000099 0.000014 0.000014
							CHANNELS 3 Zrotation Yrotation Xrotation
							JOINT RightHand
							{
								OFFSET 25.199772 0.000145 0.000419
								CHANNELS 3 Zrotation Yrotation Xrotation
								End Site
								{
									OFFSET 0.000000 0.000000 0.000000
								}
							}
						}
					}
				}
			}
		}
	}
}
MOTION
Frames: 12
Frame Time: 0.033333
93.006660 91.503891 151.257904 90.638065 -3.277125 84.108780 170.708503 -3.162907 169.380126 -21.757305 1.772998 -5.637368 83.467220 2.650630 -5.637519 21.454551 0.003096 0.000001 171.856903 4.786702 -170.711631 -19.481498 -4.050015 7.850983 84.853093 -3.411701 10.094240 21.454560 -0.003106 -0.000015 5.074583 -0.024242 0.154024 0.092641 -0.074677 0.336232 -0.225453 -0.072510 0.336666 8.568851 4.658632 -0.825923 -21.648927 -4.368476 1.602016 -66.927664 -81.831486 -115.622016 7.084958 13.691920 -16.069885 -47.837556 -29.366586 2.654566 8.650006 -12.128371 0.777380 -66.575186 86.740336 115.456534 1.960475 -11.394641 25.463167 -41.978066 17.683682 -1.712899 4.835346 13.386534 -6.201533 
93.008583 91.505463 151.262405 90.638065 -3.277125 84.108780 170.703394 -3.159605 169.391164 -21.763834 1.768680 -5.645007 83.463921 2.656070 -5.637518 21.454551 0.003108 0.000001 171.856903 4.786702 -170.711631 -19.481496 -4.050013 7.856726 84.847923 -3.414649 10.097412 21.454560 -0.003106 -0.000017 5.074583 -0.024242 0.154024 0.092644 -0.070864 0.339008 -0.225457 -0.068693 0.339431 8.627793 4.592950 -0.751531 -21.714638 -4.212517 1.606938 -67.025022 -81.848424 -115.522773 7.084957 13.676240 -16.030714 -47.811235 -29.359131 2.654585 8.593426 -12.145862 0.755256 -66.097660 86.750738 115.932995 1.974702 -11.418219 25.463177 -41.978066 17.654055 -1.712897 4.835177 13.441729 -6.215418 
93.012894 91.509102 151.273193 90.638072 -3.277129 84.113930 170.692465 -3.152212 169.417597 -21.778514 1.758455 -5.662951 83.456012 2.669088 -5.634578 21.454555 0.003082 -0.000001 171.856903 4.786703 -170.711617 -19.481506 -4.054778 7.871600 84.835683 -3.422498 10.105126 21.454560 -0.003108 -0.000017 5.074581 -0.024253 0.154027 0.097265 -0.062622 0.345536 -0.220829 -0.060392 0.345908 8.672771 4.553144 -0.625935 -21.794377 -4.077712 1.679231 -67.311487 -81.875971 -115.233501 7.078382 13.636488 -15.950428 -47.760545 -29.340129 2.654580 8.499614 -12.152564 0.664400 -65.318007 86.757193 116.711732 1.979450 -11.461260 25.464351 -41.978069 17.592966 -1.712895 4.854474 13.564850 -6.229190 
93.015678 91.512657 151.281799 90.638072 -3.277130 84.125773 170.680130 -3.149005 169.445573 -21.797608 1.746841 -5.676816 83.447522 2.680008 -5.628058 21.454555 0.003081 -0.000001 171.856903 4.786697 -170.711631 -19.481492 -4.061845 7.890054 84.821838 -3.432499 10.113833 21.454562 -0.003118 -0.000018 5.074586 -0.024235 0.154021 0.105630 -0.054381 0.350553 -0.212446 -0.052113 0.350866 8.686497 4.564425 -0.522919 -21.866036 -4.038803 1.775623 -67.510580 -81.890970 -115.032707 7.057140 13.619919 -15.915958 -47.759954 -29.328453 2.654576 8.489070 -12.102892 0.577534 -64.832900 86.760150 117.196825 1.969518 -11.490520 25.472576 -41.990053 17.550518 -1.712916 4.917475 13.621498 -6.170064 
93.017128 91.516479 151.287506 90.638079 -3.280999 84.147965 170.665650 -3.147088 169.470189 -21.813148 1.735660 -5.681043 83.436163 2.685190 -5.616588 21.454551 0.003088 0.000001 171.856903 4.786699 -170.708557 -19.481503 -4.070640 7.910796 84.807529 -3.443874 10.123292 21.454557 -0.003106 -0.000016 5.074582 -0.024249 0.154024 0.114216 -0.048577 0.352890 -0.203875 -0.046306 0.353189 8.659068 4.600082 -0.453331 -21.898498 -4.049423 1.860954 -67.515757 -81.900272 -115.026765 7.035772 13.634782 -15.913161 -47.800341 -29.327866 2.654563 8.508841 -12.053944 0.587040 -64.595524 86.771959 117.432685 1.966439 -11.505911 25.482066 -42.013327 17.533814 -1.712904 4.976813 13.650308 -6.101258 
93.017410 91.520653 151.289902 90.642505 -3.287488 84.180763 170.648492 -3.144693 169.487756 -21.821404 1.726053 -5.674644 83.419853 2.683870 -5.600071 21.454553 0.003081 -0.000001 171.856903 4.786702 -170.698107 -19.481499 -4.080670 7.932496 84.793459 -3.455863 10.133096 21.454560 -0.003102 -0.000017 5.074592 -0.024010 0.154028 0.121485 -0.045486 0.354736 -0.196605 -0.043207 0.355011 8.585538 4.637389 -0.426195 -21.876459 -4.073678 1.907175 -67.413626 -81.912888 -115.127524 7.019603 13.654253 -15.937855 -47.872000 -29.338473 2.654584 8.525615 -11.995785 0.684250 -64.473926 86.802429 117.551326 1.986196 -11.508239 25.490438 -42.042584 17.546681 -1.712901 5.008512 13.651303 -6.077274 
93.017021 91.524597 151.289505 90.647668 -3.295835 84.218787 170.628412 -3.141671 169.503193 -21.826938 1.717324 -5.664019 83.402245 2.680010 -5.581341 21.454555 0.003094 0.000001 171.852272 4.786695 -170.685034 -19.481492 -4.091335 7.953975 84.780761 -3.467730 10.142984 21.454558 -0.003110 -0.000019 5.074586 -0.023552 0.154024 0.128446 -0.043761 0.356117 -0.189641 -0.041498 0.356379 8.469000 4.650688 -0.438600 -21.814856 -4.081725 1.901821 -67.255712 -81.926637 -115.284154 7.002798 13.668521 -15.995934 -47.974019 -29.366617 2.654573 8.483971 -11.919602 0.935534 -64.431196 86.840056 117.590258 2.020512 -11.500999 25.491118 -42.064014 17.578856 -1.712905 5.009865 13.618269 -6.070340 
93.016296 91.528030 151.286301 90.653310 -3.305411 84.257733 170.606801 -3.138460 169.516074 -21.830254 1.709328 -5.651605 83.385190 2.675134 -5.561690 21.454551 0.003094 0.000001 171.843844 4.786703 -170.672931 -19.486072 -4.102090 7.974530 84.770154 -3.479153 10.152596 21.454555 -0.003109 -0.000017 5.074597 -0.022899 0.154026 0.136261 -0.042383 0.357074 -0.181830 -0.040114 0.357314 8.328016 4.643543 -0.476278 -21.744187 -4.075039 1.861522 -67.077608 -81.937319 -115.461179 6.983986 13.676659 -16.049329 -48.069990 -29.376746 2.654574 8.431827 -11.948848 1.061611 -64.497224 86.872684 117.520617 2.057786 -11.483040 25.481301 -42.067019 17.624673 -1.712903 4.967921 13.561299 -6.076433 
93.015541 91.530823 151.280701 90.659314 -3.315797 84.293694 170.584343 -3.136006 169.526320 -21.832281 1.701780 -5.639426 83.369214 2.670460 -5.542002 21.454553 0.003093 0.000001 171.831795 4.786699 -170.664653 -19.492344 -4.112616 7.994598 84.761848 -3.490555 10.161391 21.454560 -0.003113 -0.000018 5.079331 -0.022115 0.154022 0.145732 -0.040951 0.357622 -0.172348 -0.038688 0.357848 8.189327 4.614055 -0.522029 -21.684314 -4.053995 1.803915 -66.942950 -81.940584 -115.595610 6.957587 13.668353 -16.081675 -48.143674 -29.380400 2.654579 8.404421 -11.953864 1.131732 -64.568947 86.894042 117.446974 2.087645 -11.455669 25.462491 -42.040907 17.676799 -1.712902 4.886854 13.500829 -6.112858 
93.014709 91.532928 151.273102 90.665345 -3.327712 84.323255 170.559905 -3.134233 169.530363 -21.835061 1.695109 -5.627179 83.354754 2.665565 -5.523141 21.454553 0.003085 -0.000000 171.815458 4.786699 -170.662850 -19.499382 -4.122781 8.013916 84.755824 -3.501895 10.168943 21.454557 -0.003102 -0.000018 5.084730 -0.021248 0.154022 0.156545 -0.039524 0.357784 -0.161545 -0.037277 0.358032 8.056705 4.563958 -0.566064 -21.645505 -4.014422 1.738019 -66.880994 -81.928536 -115.658776 6.919755 13.651242 -16.092923 -48.185762 -29.379475 2.654579 8.386044 -11.938150 1.154573 -64.575252 86.900353 117.439871 2.104096 -11.421011 25.430196 -41.983551 17.727548 -1.712909 4.790393 13.459893 -6.168294 
93.013977 91.534637 151.264099 90.671410 -3.340066 84.346573 170.535535 -3.132515 169.527016 -21.838248 1.690084 -5.614154 83.341442 2.659931 -5.505358 21.454551 0.003100 0.000001 171.796278 4.786696 -170.666866 -19.507263 -4.131849 8.032128 84.750934 -3.512793 10.175265 21.454560 -0.003096 -0.000018 5.090062 -0.020349 0.154024 0.167208 -0.038163 0.357630 -0.150876 -0.035910 0.357853 7.938591 4.569109 -0.616225 -21.614692 -4.038300 1.699729 -66.743980 -81.911891 -115.797579 6.889368 13.641279 -16.096855 -48.197366 -29.369817 2.654578 8.366620 -11.934229 1.169840 -64.640767 86.902689 117.374861 2.119055 -11.385360 25.437680 -41.929155 17.735988 -1.712921 4.713694 13.445072 -6.273977 
93.013496 91.535927 151.253906 90.676526 -3.351742 84.365028 170.511656 -3.130949 169.517099 -21.841934 1.688064 -5.600058 83.329933 2.653249 -5.489099 21.454548 0.003085 0.000000 171.776321 4.786688 -170.674352 -19.515179 -4.139107 8.048687 84.746644 -3.522912 10.180053 21.454558 -0.003099 -0.000017 5.095115 -0.019474 0.154025 0.177324 -0.036917 0.357144 -0.140763 -0.034668 0.357382 7.842437 4.585246 -0.666814 -21.593095 -4.090057 1.673562 -66.598005 -81.900006 -115.944783 6.873242 13.639182 -16.081407 -48.163854 -29.357345 2.654576 8.363839 -11.954638 1.240874 -64.592621 86.903577 117.423656 2.151437 -11.353211 25.465051 -41.907917 17.729213 -1.712919 4.734282 13.479411 -6.323624 
